HIERARCHY
ROOT mixamorig:Hips
{
	OFFSET 0.000000 77.627144 7.190781
	CHANNELS 6 Xposition Yposition Zposition Zrotation Yrotation Xrotation 
	JOINT mixamorig:Spine
	{
		OFFSET 0.000000 14.685707 -1.734714
		CHANNELS 3 Zrotation Yrotation Xrotation
		JOINT mixamorig:Spine1
		{
			OFFSET 0.000000 17.133331 -2.023833
			CHANNELS 3 Zrotation Yrotation Xrotation
			JOINT mixamorig:Spine2
			{
				OFFSET 0.000000 19.580948 -2.312953
				CHANNELS 3 Zrotation Yrotation Xrotation
				JOINT mixamorig:Neck
				{
					OFFSET 0.000000 22.028564 -2.602070
					CHANNELS 3 Zrotation Yrotation Xrotation
					JOINT mixamorig:Head
					{
						OFFSET 0.000000 7.772293 1.167654
						CHANNELS 3 Zrotation Yrotation Xrotation
						JOINT mixamorig:HeadTop_End
						{
							OFFSET 0.000000 26.518158 3.983897
							CHANNELS 3 Zrotation Yrotation Xrotation
							End Site
							{
								OFFSET 0.000000 0.000000 0.000000
							}
						}
					}
				}
				JOINT mixamorig:LeftShoulder
				{
					OFFSET 11.646637 18.513367 -2.583829
					CHANNELS 3 Zrotation Yrotation Xrotation
					JOINT mixamorig:LeftArm
					{
						OFFSET 23.494797 -6.787735 0.036483
						CHANNELS 3 Zrotation Yrotation Xrotation
						JOINT mixamorig:LeftForeArm
						{
							OFFSET 22.628841 -2.236465 0.895561
							CHANNELS 3 Zrotation Yrotation Xrotation
							JOINT mixamorig:LeftHand
							{
								OFFSET 32.235813 0.214081 0.341628
								CHANNELS 3 Zrotation Yrotation Xrotation
								JOINT mixamorig:LeftHandThumb1
								{
									OFFSET 4.043732 -2.301453 4.675424
									CHANNELS 3 Zrotation Yrotation Xrotation
									JOINT mixamorig:LeftHandThumb2
									{
										OFFSET 3.235001 -1.841141 3.740334
										CHANNELS 3 Zrotation Yrotation Xrotation
										JOINT mixamorig:LeftHandThumb3
										{
											OFFSET 4.136284 -1.355438 2.884997
											CHANNELS 3 Zrotation Yrotation Xrotation
											JOINT mixamorig:LeftHandThumb4
											{
												OFFSET 3.443222 -1.440781 1.895251
												CHANNELS 3 Zrotation Yrotation Xrotation
												End Site
												{
													OFFSET 0.000000 0.000000 0.000000
												}
											}
										}
									}
								}
								JOINT mixamorig:LeftHandIndex1
								{
									OFFSET 12.534279 0.552322 5.370454
									CHANNELS 3 Zrotation Yrotation Xrotation
									JOINT mixamorig:LeftHandIndex2
									{
										OFFSET 4.462021 -0.042068 -0.222766
										CHANNELS 3 Zrotation Yrotation Xrotation
										JOINT mixamorig:LeftHandIndex3
										{
											OFFSET 4.426414 -0.140015 -0.221126
											CHANNELS 3 Zrotation Yrotation Xrotation
											JOINT mixamorig:LeftHandIndex4
											{
												OFFSET 3.584976 -0.033737 -0.180877
												CHANNELS 3 Zrotation Yrotation Xrotation
												End Site
												{
													OFFSET 0.000000 0.000000 0.000000
												}
											}
										}
									}
								}
								JOINT mixamorig:LeftHandMiddle1
								{
									OFFSET 12.067444 0.830978 1.411757
									CHANNELS 3 Zrotation Yrotation Xrotation
									JOINT mixamorig:LeftHandMiddle2
									{
										OFFSET 5.488625 0.110443 -0.140360
										CHANNELS 3 Zrotation Yrotation Xrotation
										JOINT mixamorig:LeftHandMiddle3
										{
											OFFSET 5.193268 -0.285706 -0.132956
											CHANNELS 3 Zrotation Yrotation Xrotation
											JOINT mixamorig:LeftHandMiddle4
											{
												OFFSET 4.443779 -0.316895 -0.113542
												CHANNELS 3 Zrotation Yrotation Xrotation
												End Site
												{
													OFFSET 0.000000 0.000000 0.000000
												}
											}
										}
									}
								}
								JOINT mixamorig:LeftHandRing1
								{
									OFFSET 12.202324 0.602158 -2.428782
									CHANNELS 3 Zrotation Yrotation Xrotation
									JOINT mixamorig:LeftHandRing2
									{
										OFFSET 4.681709 0.293594 -0.070412
										CHANNELS 3 Zrotation Yrotation Xrotation
										JOINT mixamorig:LeftHandRing3
										{
											OFFSET 4.517784 0.001785 -0.067170
											CHANNELS 3 Zrotation Yrotation Xrotation
											JOINT mixamorig:LeftHandRing4
											{
												OFFSET 3.536186 -0.473984 -0.050865
												CHANNELS 3 Zrotation Yrotation Xrotation
												End Site
												{
													OFFSET 0.000000 0.000000 0.000000
												}
											}
										}
									}
								}
								JOINT mixamorig:LeftHandPinky1
								{
									OFFSET 11.261032 -0.021225 -5.740205
									CHANNELS 3 Zrotation Yrotation Xrotation
									JOINT mixamorig:LeftHandPinky2
									{
										OFFSET 4.446136 0.226913 -0.056313
										CHANNELS 3 Zrotation Yrotation Xrotation
										JOINT mixamorig:LeftHandPinky3
										{
											OFFSET 3.536148 0.035980 -0.044635
											CHANNELS 3 Zrotation Yrotation Xrotation
											JOINT mixamorig:LeftHandPinky4
											{
												OFFSET 2.822449 0.069366 -0.035670
												CHANNELS 3 Zrotation Yrotation Xrotation
												End Site
												{
													OFFSET 0.000000 0.000000 0.000000
												}
											}
										}
									}
								}
							}
						}
					}
				}
				JOINT mixamorig:RightShoulder
				{
					OFFSET -11.646637 18.513367 -2.620312
					CHANNELS 3 Zrotation Yrotation Xrotation
					JOINT mixamorig:RightArm
					{
						OFFSET -23.494804 -6.787735 -0.036485
						CHANNELS 3 Zrotation Yrotation Xrotation
						JOINT mixamorig:RightForeArm
						{
							OFFSET -22.628826 -2.236481 0.960591
							CHANNELS 3 Zrotation Yrotation Xrotation
							JOINT mixamorig:RightHand
							{
								OFFSET -32.235806 0.214096 0.317908
								CHANNELS 3 Zrotation Yrotation Xrotation
								JOINT mixamorig:RightHandThumb1
								{
									OFFSET -4.056908 -2.304855 4.721249
									CHANNELS 3 Zrotation Yrotation Xrotation
									JOINT mixamorig:RightHandThumb2
									{
										OFFSET -3.245529 -1.843887 3.777003
										CHANNELS 3 Zrotation Yrotation Xrotation
										JOINT mixamorig:RightHandThumb3
										{
											OFFSET -4.153908 -1.359879 2.907515
											CHANNELS 3 Zrotation Yrotation Xrotation
											JOINT mixamorig:RightHandThumb4
											{
												OFFSET -3.491310 -1.375549 1.529044
												CHANNELS 3 Zrotation Yrotation Xrotation
												End Site
												{
													OFFSET 0.000000 0.000000 0.000000
												}
											}
										}
									}
								}
								JOINT mixamorig:RightHandIndex1
								{
									OFFSET -12.331047 0.757294 5.317495
									CHANNELS 3 Zrotation Yrotation Xrotation
									JOINT mixamorig:RightHandIndex2
									{
										OFFSET -4.758568 -0.224289 -0.035605
										CHANNELS 3 Zrotation Yrotation Xrotation
										JOINT mixamorig:RightHandIndex3
										{
											OFFSET -4.415932 -0.181503 -0.033052
											CHANNELS 3 Zrotation Yrotation Xrotation
											JOINT mixamorig:RightHandIndex4
											{
												OFFSET -3.678474 0.414856 -0.027373
												CHANNELS 3 Zrotation Yrotation Xrotation
												End Site
												{
													OFFSET 0.000000 0.000000 0.000000
												}
											}
										}
									}
								}
								JOINT mixamorig:RightHandMiddle1
								{
									OFFSET -12.051239 0.663742 1.548264
									CHANNELS 3 Zrotation Yrotation Xrotation
									JOINT mixamorig:RightHandMiddle2
									{
										OFFSET -5.374817 0.301971 -0.166537
										CHANNELS 3 Zrotation Yrotation Xrotation
										JOINT mixamorig:RightHandMiddle3
										{
											OFFSET -5.310471 -0.301758 -0.164593
											CHANNELS 3 Zrotation Yrotation Xrotation
											JOINT mixamorig:RightHandMiddle4
											{
												OFFSET -4.485832 -0.342514 -0.139207
												CHANNELS 3 Zrotation Yrotation Xrotation
												End Site
												{
													OFFSET 0.000000 0.000000 0.000000
												}
											}
										}
									}
								}
								JOINT mixamorig:RightHandRing1
								{
									OFFSET -12.195183 0.742325 -2.381488
									CHANNELS 3 Zrotation Yrotation Xrotation
									JOINT mixamorig:RightHandRing2
									{
										OFFSET -4.583191 0.034424 -0.012763
										CHANNELS 3 Zrotation Yrotation Xrotation
										JOINT mixamorig:RightHandRing3
										{
											OFFSET -4.612793 0.026199 -0.012632
											CHANNELS 3 Zrotation Yrotation Xrotation
											JOINT mixamorig:RightHandRing4
											{
												OFFSET -3.314957 -0.541855 -0.006643
												CHANNELS 3 Zrotation Yrotation Xrotation
												End Site
												{
													OFFSET 0.000000 0.000000 0.000000
												}
											}
										}
									}
								}
								JOINT mixamorig:RightHandPinky1
								{
									OFFSET -11.332825 -0.054398 -5.574547
									CHANNELS 3 Zrotation Yrotation Xrotation
									JOINT mixamorig:RightHandPinky2
									{
										OFFSET -4.462639 0.300003 -0.206312
										CHANNELS 3 Zrotation Yrotation Xrotation
										JOINT mixamorig:RightHandPinky3
										{
											OFFSET -3.493774 0.049591 -0.161451
											CHANNELS 3 Zrotation Yrotation Xrotation
											JOINT mixamorig:RightHandPinky4
											{
												OFFSET -2.793701 0.056946 -0.129098
												CHANNELS 3 Zrotation Yrotation Xrotation
												End Site
												{
													OFFSET 0.000000 0.000000 0.000000
												}
											}
										}
									}
								}
							}
						}
					}
				}
			}
		}
	}
	JOINT mixamorig:LeftUpLeg
	{
		OFFSET 13.580879 -8.149223 -1.796077
		CHANNELS 3 Zrotation Yrotation Xrotation
		JOINT mixamorig:LeftLeg
		{
			OFFSET 3.676140 -35.802425 -2.676071
			CHANNELS 3 Zrotation Yrotation Xrotation
			JOINT mixamorig:LeftFoot
			{
				OFFSET -0.369089 -26.709160 -2.057140
				CHANNELS 3 Zrotation Yrotation Xrotation
				JOINT mixamorig:LeftToeBase
				{
					OFFSET -1.192477 -6.581660 13.403662
					CHANNELS 3 Zrotation Yrotation Xrotation
					JOINT mixamorig:LeftToe_End
					{
						OFFSET -0.351336 -0.163913 5.937977
						CHANNELS 3 Zrotation Yrotation Xrotation
						End Site
						{
							OFFSET 0.000000 0.000000 0.000000
						}
					}
				}
			}
		}
	}
	JOINT mixamorig:RightUpLeg
	{
		OFFSET -13.580879 -8.149223 -2.255285
		CHANNELS 3 Zrotation Yrotation Xrotation
		JOINT mixamorig:RightLeg
		{
			OFFSET -3.676140 -35.802425 -2.316821
			CHANNELS 3 Zrotation Yrotation Xrotation
			JOINT mixamorig:RightFoot
			{
				OFFSET 0.369059 -26.709040 -2.090143
				CHANNELS 3 Zrotation Yrotation Xrotation
				JOINT mixamorig:RightToeBase
				{
					OFFSET 1.192393 -6.582436 13.372205
					CHANNELS 3 Zrotation Yrotation Xrotation
					JOINT mixamorig:RightToe_End
					{
						OFFSET 0.351307 -0.164255 5.913618
						CHANNELS 3 Zrotation Yrotation Xrotation
						End Site
						{
							OFFSET 0.000000 0.000000 0.000000
						}
					}
				}
			}
		}
	}
}
MOTION
Frames: 4
Frame Time: 0.016667
2.644610 77.855316 11.617527 -8.194623 -2.948181 0.676601 1.632361 -5.108938 3.420699 0.530898 -0.772781 2.536306 0.506138 -0.759192 2.525728 9.000295 -4.844725 0.526527 3.566124 -12.575554 -7.011087 0.000000 0.000000 0.000000 1.766310 -24.314055 2.463272 0.046934 -53.881579 -0.538684 177.025381 -80.322075 177.440243 -15.166380 -7.162852 17.978983 10.617561 2.777887 2.210487 -37.624679 34.524437 1.815750 15.797622 47.010638 -9.381690 -0.000001 -0.000000 -0.000004 -74.382111 2.411466 6.913031 -81.331122 0.919806 -5.582531 -97.244729 0.054453 -6.434452 0.000001 -0.000000 0.000004 -71.416907 -0.580396 1.783419 -103.178250 1.482516 -5.416533 -71.291847 2.209243 -3.390889 0.000002 0.000000 -0.000001 -79.538056 -2.096045 1.812855 -90.583952 2.201400 -4.154735 -52.238000 2.533707 -1.835718 0.000002 -0.000000 0.000002 -83.599156 0.868825 -6.730786 -52.496192 2.257582 -1.925596 -81.993884 2.397930 -3.434164 0.000000 -0.000002 0.000000 -12.554367 2.690402 -23.754079 -13.195504 9.276350 -23.878426 6.133905 31.761333 0.405163 -25.750203 -7.729176 -38.705860 -9.700087 -0.195306 1.232963 12.863277 -24.743698 1.984841 -22.602984 -27.249787 -9.384568 0.000004 -0.000003 -0.000000 45.540954 2.695846 9.138882 83.058065 -1.298716 -1.782559 104.913746 -0.873593 -2.391179 -0.000001 -0.000000 -0.000001 73.816005 2.740676 4.108481 100.983230 0.925972 -3.182137 42.710796 -0.349705 -1.464658 0.000000 -0.000001 -0.000002 89.511100 2.440692 3.578940 86.152700 -1.271199 -1.502941 31.841701 -1.008851 -0.280306 0.000005 0.000001 -0.000001 98.244300 3.638374 -3.863244 48.524533 0.072992 -2.394705 53.712502 0.242312 -2.576300 -0.000001 0.000001 -0.000000 21.326599 15.765435 -13.034682 3.750531 7.243760 32.441445 -2.530111 0.636234 -7.640693 -0.875848 -0.036842 -3.612165 -0.000001 -0.000001 -0.000001 -11.782868 -18.619479 -30.954772 -7.015372 -3.391983 67.733711 16.536878 -20.061369 4.244676 -0.000014 -0.000025 3.854634 0.000001 0.000001 0.000001 
0.585678 77.898041 11.874033 -6.946858 -1.896187 1.054972 -0.270661 -5.161862 2.618239 0.355677 -0.795561 1.949422 0.337577 -0.787293 1.937139 10.487383 -5.221639 0.718514 2.545230 -12.419276 -4.743218 0.000000 0.000000 0.000000 0.547196 -24.751071 2.679275 1.043907 -52.913400 1.737968 177.011179 -80.269899 177.454587 -15.625531 -7.113142 14.576851 10.617562 2.777888 2.210488 -37.624672 34.524430 1.815746 15.797631 47.010627 -9.381689 0.000000 0.000000 0.000000 -74.382118 2.411467 6.913021 -81.331109 0.919817 -5.582528 -97.244723 0.054447 -6.434428 0.000000 0.000000 -0.000002 -71.416893 -0.580392 1.783423 -103.178230 1.482507 -5.416526 -71.291874 2.209241 -3.390892 0.000001 0.000000 0.000000 -79.538029 -2.096045 1.812860 -90.583925 2.201390 -4.154739 -52.237993 2.533712 -1.835727 0.000001 -0.000000 0.000001 -83.599163 0.868824 -6.730776 -52.496189 2.257574 -1.925606 -81.993870 2.397930 -3.434165 0.000001 -0.000001 -0.000002 -12.029997 -0.352335 -23.338586 -15.672704 20.865556 -11.135217 6.046627 12.494437 0.242915 -18.185023 0.610369 -41.000360 -9.700081 -0.195300 1.232964 12.863266 -24.743685 1.984817 -22.602996 -27.249788 -9.384565 -0.000000 0.000003 -0.000003 45.540961 2.695847 9.138889 83.058051 -1.298718 -1.782573 104.913745 -0.873593 -2.391203 0.000000 -0.000001 -0.000001 73.816025 2.740665 4.108467 100.983210 0.925969 -3.182124 42.710796 -0.349719 -1.464659 -0.000001 -0.000001 -0.000001 89.511114 2.440679 3.578938 86.152700 -1.271218 -1.502920 31.841697 -1.008862 -0.280306 0.000000 -0.000003 -0.000003 98.244286 3.638356 -3.863236 48.524536 0.073027 -2.394732 53.712503 0.242276 -2.576300 -0.000002 -0.000002 0.000000 18.369839 16.818591 -14.723737 2.994753 5.385082 36.438887 -5.292476 -0.025645 -9.258492 -0.000009 0.000014 -2.373600 -0.000002 0.000000 0.000000 -12.634459 -15.003612 -25.634545 -5.874618 -4.613797 53.570260 16.615033 -18.055472 10.119114 -0.000018 0.000008 2.290516 -0.000000 0.000001 -0.000002 
-1.417163 77.620010 12.136895 -5.662251 -0.801515 1.433390 -2.040882 -5.240852 1.906895 0.241416 -0.818071 1.445760 0.229089 -0.813507 1.432576 11.548046 -5.467516 0.690250 1.639675 -12.175613 -2.713964 0.000000 -0.000002 0.000000 -0.774760 -25.021871 2.920723 1.771674 -51.747652 3.759375 176.836315 -79.579747 177.631334 -16.272320 -7.067568 11.442634 10.617558 2.777865 2.210493 -37.624688 34.524440 1.815740 15.797643 47.010644 -9.381680 -0.000001 -0.000003 -0.000003 -74.382118 2.411468 6.913039 -81.331102 0.919824 -5.582532 -97.244717 0.054460 -6.434428 0.000000 0.000000 -0.000002 -71.416921 -0.580391 1.783422 -103.178243 1.482512 -5.416529 -71.291867 2.209250 -3.390888 0.000001 -0.000000 0.000002 -79.538035 -2.096046 1.812850 -90.583946 2.201395 -4.154739 -52.237997 2.533709 -1.835731 -0.000002 -0.000000 -0.000003 -83.599142 0.868824 -6.730764 -52.496195 2.257574 -1.925603 -81.993877 2.397931 -3.434163 -0.000003 0.000001 -0.000000 -11.867717 -3.451194 -22.956586 -14.184641 29.306432 1.804187 6.023490 1.852856 0.169287 -11.949171 7.348870 -35.019464 -9.700089 -0.195293 1.232971 12.863258 -24.743694 1.984830 -22.603006 -27.249775 -9.384563 0.000000 -0.000003 -0.000004 45.540958 2.695854 9.138887 83.058017 -1.298717 -1.782581 104.913745 -0.873595 -2.391191 0.000001 0.000000 -0.000001 73.816025 2.740677 4.108473 100.983217 0.925942 -3.182108 42.710803 -0.349692 -1.464665 0.000001 -0.000002 -0.000000 89.511121 2.440678 3.578941 86.152721 -1.271219 -1.502914 31.841690 -1.008837 -0.280302 0.000001 -0.000004 -0.000000 98.244279 3.638349 -3.863244 48.524509 0.073014 -2.394698 53.712508 0.242299 -2.576307 0.000003 0.000002 -0.000001 15.035377 17.370578 -15.898716 1.970266 3.740670 39.614741 -7.922327 -0.183289 -11.258122 -0.000002 -0.000000 -2.403269 -0.000001 -0.000001 0.000000 -13.460974 -11.529396 -20.120598 -3.888523 -5.039353 39.076391 15.477969 -16.000571 14.702612 -0.000008 -0.000009 -0.957598 0.000002 -0.000003 0.000002 
-3.211188 77.184540 12.365378 -4.582864 0.346000 1.730650 -3.378642 -5.355941 1.343215 0.209551 -0.839832 1.092476 0.201020 -0.837389 1.079291 12.070836 -5.529033 0.490157 0.923936 -11.780570 -1.133153 0.000000 0.000002 0.000000 -2.051732 -25.033661 3.161568 1.813396 -50.477071 5.606491 176.599960 -78.474222 177.870707 -17.028962 -7.004768 9.144300 10.617563 2.777877 2.210482 -37.624687 34.524445 1.815730 15.797647 47.010645 -9.381677 -0.000003 -0.000000 -0.000005 -74.382118 2.411461 6.913037 -81.331109 0.919800 -5.582534 -97.244702 0.054457 -6.434455 0.000000 0.000000 -0.000002 -71.416914 -0.580402 1.783411 -103.178202 1.482511 -5.416526 -71.291841 2.209233 -3.390905 0.000001 -0.000001 -0.000000 -79.538035 -2.096045 1.812852 -90.583946 2.201405 -4.154735 -52.237966 2.533706 -1.835724 -0.000000 0.000001 -0.000001 -83.599163 0.868819 -6.730774 -52.496189 2.257584 -1.925596 -81.993883 2.397926 -3.434148 -0.000001 -0.000001 -0.000002 -12.055921 -6.389529 -22.628462 -11.550205 32.534955 13.604566 6.023504 1.852827 0.169298 -6.303668 10.888515 -22.445688 -9.700085 -0.195295 1.232974 12.863280 -24.743696 1.984817 -22.602998 -27.249783 -9.384575 0.000002 -0.000001 -0.000005 45.540961 2.695855 9.138879 83.058058 -1.298725 -1.782579 104.913738 -0.873607 -2.391203 0.000003 0.000000 0.000000 73.816019 2.740664 4.108462 100.983217 0.925958 -3.182111 42.710793 -0.349722 -1.464665 -0.000001 -0.000004 0.000000 89.511114 2.440677 3.578947 86.152721 -1.271196 -1.502928 31.841707 -1.008873 -0.280301 0.000001 0.000004 -0.000001 98.244307 3.638361 -3.863257 48.524533 0.073014 -2.394708 53.712488 0.242309 -2.576309 0.000001 0.000002 0.000001 11.529400 17.308780 -16.344329 1.543588 3.015192 41.338123 -9.485196 0.526913 -13.520741 -0.000003 -0.000007 -2.592118 0.000000 0.000000 0.000000 -13.615328 -8.711112 -13.893623 -2.519091 -4.423525 23.690372 13.482422 -14.221928 18.129716 5.065261 0.479663 -12.394232 0.000001 -0.000001 0.000001 
